<svg class="lds-spinner" width="48" height="48" xmlns="http://www.w3.org/2000/svg" viewBox="0 0 100 100" preserveAspectRatio="xMidYMid" style="background:0 0"><rect x="47.5" y="24" rx="9.5" ry="4.8" width="5" height="12" fill="#222"><animate attributeName="opacity" values="1;0" keyTimes="0;1" dur="1.5s" begin="-1.35s" repeatCount="indefinite"/></rect><rect x="47.5" y="24" rx="9.5" ry="4.8" width="5" height="12" fill="#222" transform="rotate(36 50 50)"><animate attributeName="opacity" values="1;0" keyTimes="0;1" dur="1.5s" begin="-1.2s" repeatCount="indefinite"/></rect><rect x="47.5" y="24" rx="9.5" ry="4.8" width="5" height="12" fill="#222" transform="rotate(72 50 50)"><animate attributeName="opacity" values="1;0" keyTimes="0;1" dur="1.5s" begin="-1.05s" repeatCount="indefinite"/></rect><rect x="47.5" y="24" rx="9.5" ry="4.8" width="5" height="12" fill="#222" transform="rotate(108 50 50)"><animate attributeName="opacity" values="1;0" keyTimes="0;1" dur="1.5s" begin="-0.9s" repeatCount="indefinite"/></rect><rect x="47.5" y="24" rx="9.5" ry="4.8" width="5" height="12" fill="#222" transform="rotate(144 50 50)"><animate attributeName="opacity" values="1;0" keyTimes="0;1" dur="1.5s" begin="-0.75s" repeatCount="indefinite"/></rect><rect x="47.5" y="24" rx="9.5" ry="4.8" width="5" height="12" fill="#222" transform="rotate(180 50 50)"><animate attributeName="opacity" values="1;0" keyTimes="0;1" dur="1.5s" begin="-0.6s" repeatCount="indefinite"/></rect><rect x="47.5" y="24" rx="9.5" ry="4.8" width="5" height="12" fill="#222" transform="rotate(216 50 50)"><animate attributeName="opacity" values="1;0" keyTimes="0;1" dur="1.5s" begin="-0.45s" repeatCount="indefinite"/></rect><rect x="47.5" y="24" rx="9.5" ry="4.8" width="5" height="12" fill="#222" transform="rotate(252 50 50)"><animate attributeName="opacity" values="1;0" keyTimes="0;1" dur="1.5s" begin="-0.3s" repeatCount="indefinite"/></rect><rect x="47.5" y="24" rx="9.5" ry="4.8" width="5" height="12" fill="#222" transform="rotate(288 50 50)"><animate attributeName="opacity" values="1;0" keyTimes="0;1" dur="1.5s" begin="-0.15s" repeatCount="indefinite"/></rect><rect x="47.5" y="24" rx="9.5" ry="4.8" width="5" height="12" fill="#222" transform="rotate(324 50 50)"><animate attributeName="opacity" values="1;0" keyTimes="0;1" dur="1.5s" begin="0s" repeatCount="indefinite"/></rect></svg>